<svg xmlns="http://www.w3.org/2000/svg" xmlns:xlink="http://www.w3.org/1999/xlink" width="500" viewBox="0 0 375 374.999991" height="500" preserveAspectRatio="xMidYMid meet"><path fill="#55657e" d="M 238.136719 164.613281 C 239.988281 164.726562 241.789062 164.488281 243.546875 163.898438 C 245.304688 163.304688 246.882812 162.40625 248.289062 161.199219 C 249.394531 160.230469 250.25 159.078125 250.855469 157.742188 C 251.464844 156.402344 251.765625 155 251.765625 153.53125 C 251.769531 152.085938 251.472656 150.707031 250.871094 149.390625 C 250.269531 148.078125 249.421875 146.949219 248.328125 146.003906 C 247.59375 145.464844 246.820312 144.988281 246.011719 144.570312 C 245.203125 144.15625 244.363281 143.804688 243.5 143.523438 C 242.632812 143.238281 241.75 143.027344 240.851562 142.882812 C 239.953125 142.738281 239.046875 142.667969 238.136719 142.667969 C 237.226562 142.667969 236.324219 142.738281 235.421875 142.882812 C 234.523438 143.027344 233.640625 143.238281 232.777344 143.523438 C 231.910156 143.804688 231.074219 144.15625 230.265625 144.570312 C 229.453125 144.988281 228.683594 145.464844 227.949219 146.003906 C 227.410156 146.484375 226.925781 147.015625 226.5 147.601562 C 226.074219 148.183594 225.714844 148.804688 225.417969 149.460938 C 225.125 150.121094 224.902344 150.804688 224.75 151.511719 C 224.597656 152.21875 224.523438 152.929688 224.523438 153.652344 C 224.523438 154.375 224.597656 155.089844 224.75 155.796875 C 224.902344 156.5 225.125 157.183594 225.417969 157.84375 C 225.714844 158.503906 226.074219 159.125 226.5 159.707031 C 226.925781 160.289062 227.410156 160.820312 227.949219 161.300781 C 229.375 162.480469 230.96875 163.351562 232.730469 163.925781 C 234.488281 164.496094 236.292969 164.726562 238.136719 164.613281 Z M 238.136719 164.613281 " fill-opacity="1" fill-rule="evenodd"></path><path fill="#55657e" d="M 238.136719 200.429688 C 235.613281 200.261719 233.144531 200.554688 230.734375 201.316406 C 228.320312 202.078125 226.128906 203.253906 224.160156 204.839844 C 223.792969 205.1875 223.441406 205.550781 223.113281 205.933594 C 222.78125 206.316406 222.46875 206.714844 222.179688 207.128906 C 221.890625 207.542969 221.621094 207.96875 221.375 208.410156 C 221.128906 208.851562 220.90625 209.304688 220.703125 209.769531 C 220.503906 210.234375 220.328125 210.707031 220.175781 211.1875 C 220.023438 211.671875 219.898438 212.160156 219.792969 212.652344 C 219.691406 213.148438 219.613281 213.648438 219.5625 214.152344 C 219.511719 214.652344 219.488281 215.160156 219.488281 215.664062 C 219.488281 216.167969 219.511719 216.671875 219.5625 217.175781 C 219.613281 217.679688 219.691406 218.179688 219.792969 218.671875 C 219.898438 219.167969 220.023438 219.65625 220.175781 220.140625 C 220.328125 220.621094 220.503906 221.09375 220.703125 221.558594 C 220.90625 222.023438 221.128906 222.476562 221.375 222.917969 C 221.621094 223.359375 221.890625 223.785156 222.179688 224.199219 C 222.46875 224.613281 222.78125 225.011719 223.113281 225.394531 C 223.441406 225.777344 223.792969 226.140625 224.160156 226.488281 C 225.167969 227.207031 226.222656 227.84375 227.332031 228.398438 C 228.4375 228.957031 229.578125 229.421875 230.757812 229.800781 C 231.9375 230.179688 233.136719 230.464844 234.363281 230.65625 C 235.585938 230.847656 236.816406 230.941406 238.054688 230.941406 C 239.292969 230.941406 240.523438 230.847656 241.746094 230.65625 C 242.96875 230.464844 244.171875 230.179688 245.347656 229.800781 C 246.527344 229.421875 247.671875 228.957031 248.777344 228.398438 C 249.882812 227.84375 250.941406 227.207031 251.949219 226.488281 C 252.320312 226.144531 252.671875 225.78125 253.003906 225.398438 C 253.335938 225.019531 253.652344 224.621094 253.945312 224.210938 C 254.234375 223.796875 254.507812 223.371094 254.753906 222.929688 C 255.003906 222.488281 255.230469 222.035156 255.433594 221.574219 C 255.632812 221.109375 255.8125 220.636719 255.964844 220.15625 C 256.117188 219.671875 256.246094 219.183594 256.351562 218.6875 C 256.453125 218.191406 256.53125 217.695312 256.582031 217.191406 C 256.636719 216.6875 256.660156 216.183594 256.660156 215.675781 C 256.660156 215.171875 256.636719 214.667969 256.582031 214.164062 C 256.53125 213.660156 256.453125 213.160156 256.351562 212.664062 C 256.246094 212.167969 256.117188 211.679688 255.964844 211.199219 C 255.8125 210.71875 255.632812 210.242188 255.433594 209.78125 C 255.230469 209.316406 255.003906 208.863281 254.753906 208.421875 C 254.507812 207.984375 254.234375 207.554688 253.945312 207.144531 C 253.652344 206.730469 253.335938 206.335938 253.003906 205.953125 C 252.671875 205.574219 252.320312 205.210938 251.949219 204.867188 C 250.003906 203.289062 247.84375 202.117188 245.460938 201.351562 C 243.078125 200.585938 240.636719 200.28125 238.136719 200.429688 Z M 238.136719 200.429688 " fill-opacity="1" fill-rule="evenodd"></path><path fill="#55657e" d="M 187.5 0 C 184.429688 0 181.363281 0.0742188 178.300781 0.226562 C 175.234375 0.375 172.175781 0.601562 169.121094 0.902344 C 166.066406 1.203125 163.023438 1.578125 159.988281 2.03125 C 156.953125 2.480469 153.929688 3.003906 150.921875 3.601562 C 147.910156 4.203125 144.917969 4.875 141.941406 5.617188 C 138.964844 6.363281 136.007812 7.183594 133.070312 8.074219 C 130.136719 8.964844 127.222656 9.925781 124.332031 10.960938 C 121.445312 11.996094 118.582031 13.097656 115.746094 14.273438 C 112.910156 15.445312 110.105469 16.691406 107.332031 18.003906 C 104.558594 19.3125 101.820312 20.691406 99.113281 22.140625 C 96.40625 23.585938 93.738281 25.097656 91.105469 26.675781 C 88.472656 28.253906 85.882812 29.894531 83.332031 31.597656 C 80.777344 33.304688 78.269531 35.070312 75.804688 36.898438 C 73.339844 38.726562 70.921875 40.613281 68.550781 42.558594 C 66.179688 44.507812 63.855469 46.511719 61.582031 48.570312 C 59.308594 50.632812 57.085938 52.746094 54.917969 54.917969 C 52.746094 57.085938 50.632812 59.308594 48.570312 61.582031 C 46.511719 63.855469 44.507812 66.179688 42.558594 68.550781 C 40.613281 70.921875 38.726562 73.339844 36.898438 75.804688 C 35.070312 78.269531 33.304688 80.777344 31.597656 83.332031 C 29.894531 85.882812 28.253906 88.472656 26.675781 91.105469 C 25.097656 93.738281 23.585938 96.40625 22.140625 99.113281 C 20.691406 101.820312 19.3125 104.558594 18.003906 107.332031 C 16.691406 110.105469 15.445312 112.910156 14.273438 115.746094 C 13.097656 118.582031 11.996094 121.445312 10.960938 124.332031 C 9.925781 127.222656 8.964844 130.136719 8.074219 133.070312 C 7.183594 136.007812 6.363281 138.964844 5.617188 141.941406 C 4.875 144.917969 4.203125 147.910156 3.601562 150.921875 C 3.003906 153.929688 2.480469 156.953125 2.03125 159.988281 C 1.578125 163.023438 1.203125 166.066406 0.902344 169.121094 C 0.601562 172.175781 0.375 175.234375 0.226562 178.300781 C 0.0742188 181.363281 0 184.429688 0 187.5 C 0 190.570312 0.0742188 193.636719 0.226562 196.699219 C 0.375 199.765625 0.601562 202.824219 0.902344 205.878906 C 1.203125 208.933594 1.578125 211.976562 2.03125 215.011719 C 2.480469 218.046875 3.003906 221.070312 3.601562 224.078125 C 4.203125 227.089844 4.875 230.082031 5.617188 233.058594 C 6.363281 236.035156 7.183594 238.992188 8.074219 241.929688 C 8.964844 244.863281 9.925781 247.777344 10.960938 250.667969 C 11.996094 253.554688 13.097656 256.417969 14.273438 259.253906 C 15.445312 262.089844 16.691406 264.890625 18.003906 267.667969 C 19.3125 270.441406 20.691406 273.179688 22.140625 275.886719 C 23.585938 278.59375 25.097656 281.261719 26.675781 283.894531 C 28.253906 286.527344 29.894531 289.117188 31.597656 291.667969 C 33.304688 294.222656 35.070312 296.730469 36.898438 299.195312 C 38.726562 301.660156 40.613281 304.078125 42.558594 306.449219 C 44.507812 308.820312 46.511719 311.144531 48.570312 313.417969 C 50.632812 315.691406 52.746094 317.914062 54.917969 320.082031 C 57.085938 322.253906 59.308594 324.367188 61.582031 326.429688 C 63.855469 328.488281 66.179688 330.492188 68.550781 332.4375 C 70.921875 334.386719 73.339844 336.273438 75.804688 338.101562 C 78.269531 339.929688 80.777344 341.695312 83.332031 343.402344 C 85.882812 345.105469 88.472656 346.746094 91.105469 348.324219 C 93.738281 349.902344 96.40625 351.414062 99.113281 352.859375 C 101.820312 354.308594 104.558594 355.6875 107.332031 356.996094 C 110.105469 358.308594 112.910156 359.554688 115.746094 360.726562 C 118.582031 361.902344 121.445312 363.003906 124.332031 364.039062 C 127.222656 365.074219 130.136719 366.035156 133.070312 366.925781 C 136.007812 367.816406 138.964844 368.636719 141.941406 369.378906 C 144.917969 370.125 147.910156 370.796875 150.921875 371.398438 C 153.929688 371.996094 156.953125 372.519531 159.988281 372.96875 C 163.023438 373.421875 166.066406 373.796875 169.121094 374.097656 C 172.175781 374.398438 175.234375 374.625 178.300781 374.773438 C 181.363281 374.925781 184.429688 375 187.5 375 C 190.570312 375 193.636719 374.925781 196.699219 374.773438 C 199.765625 374.625 202.824219 374.398438 205.878906 374.097656 C 208.933594 373.796875 211.976562 373.421875 215.011719 372.96875 C 218.046875 372.519531 221.070312 371.996094 224.078125 371.398438 C 227.089844 370.796875 230.082031 370.125 233.058594 369.378906 C 236.035156 368.636719 238.992188 367.816406 241.929688 366.925781 C 244.863281 366.035156 247.777344 365.074219 250.667969 364.039062 C 253.554688 363.003906 256.417969 361.902344 259.253906 360.726562 C 262.089844 359.554688 264.890625 358.308594 267.667969 356.996094 C 270.441406 355.6875 273.179688 354.308594 275.886719 352.859375 C 278.59375 351.414062 281.261719 349.902344 283.894531 348.324219 C 286.527344 346.746094 289.117188 345.105469 291.667969 343.402344 C 294.222656 341.695312 296.730469 339.929688 299.195312 338.101562 C 301.660156 336.273438 304.078125 334.386719 306.449219 332.4375 C 308.820312 330.492188 311.144531 328.488281 313.417969 326.429688 C 315.691406 324.367188 317.914062 322.253906 320.082031 320.082031 C 322.253906 317.914062 324.367188 315.691406 326.429688 313.417969 C 328.488281 311.144531 330.492188 308.820312 332.4375 306.449219 C 334.386719 304.078125 336.273438 301.660156 338.101562 299.195312 C 339.929688 296.730469 341.695312 294.222656 343.402344 291.667969 C 345.105469 289.117188 346.746094 286.527344 348.324219 283.894531 C 349.902344 281.261719 351.414062 278.59375 352.859375 275.886719 C 354.308594 273.179688 355.6875 270.441406 356.996094 267.667969 C 358.308594 264.890625 359.554688 262.089844 360.726562 259.253906 C 361.902344 256.417969 363.003906 253.554688 364.039062 250.667969 C 365.074219 247.777344 366.035156 244.863281 366.925781 241.929688 C 367.816406 238.992188 368.636719 236.035156 369.378906 233.058594 C 370.125 230.082031 370.796875 227.089844 371.398438 224.078125 C 371.996094 221.070312 372.519531 218.046875 372.96875 215.011719 C 373.421875 211.976562 373.796875 208.933594 374.097656 205.878906 C 374.398438 202.824219 374.625 199.765625 374.773438 196.699219 C 374.925781 193.636719 375 190.570312 375 187.5 C 375 184.433594 374.921875 181.367188 374.769531 178.300781 C 374.617188 175.238281 374.390625 172.179688 374.089844 169.125 C 373.785156 166.070312 373.410156 163.027344 372.957031 159.992188 C 372.507812 156.957031 371.980469 153.9375 371.382812 150.925781 C 370.78125 147.917969 370.109375 144.925781 369.363281 141.949219 C 368.617188 138.972656 367.796875 136.015625 366.90625 133.082031 C 366.015625 130.144531 365.050781 127.234375 364.015625 124.34375 C 362.984375 121.457031 361.878906 118.59375 360.703125 115.761719 C 359.527344 112.925781 358.285156 110.121094 356.972656 107.347656 C 355.660156 104.574219 354.28125 101.835938 352.832031 99.132812 C 351.386719 96.425781 349.875 93.757812 348.296875 91.125 C 346.71875 88.492188 345.078125 85.902344 343.371094 83.351562 C 341.667969 80.800781 339.902344 78.292969 338.074219 75.828125 C 336.246094 73.363281 334.359375 70.945312 332.410156 68.574219 C 330.464844 66.203125 328.460938 63.882812 326.402344 61.609375 C 324.339844 59.335938 322.226562 57.113281 320.054688 54.945312 C 317.886719 52.773438 315.664062 50.660156 313.390625 48.597656 C 311.117188 46.539062 308.796875 44.535156 306.425781 42.589844 C 304.054688 40.640625 301.636719 38.753906 299.171875 36.925781 C 296.707031 35.097656 294.199219 33.332031 291.648438 31.628906 C 289.097656 29.921875 286.507812 28.28125 283.875 26.703125 C 281.242188 25.125 278.574219 23.613281 275.867188 22.167969 C 273.164062 20.71875 270.425781 19.339844 267.652344 18.027344 C 264.878906 16.714844 262.074219 15.472656 259.238281 14.296875 C 256.40625 13.121094 253.542969 12.015625 250.65625 10.984375 C 247.765625 9.949219 244.855469 8.984375 241.917969 8.09375 C 238.984375 7.203125 236.027344 6.382812 233.050781 5.636719 C 230.074219 4.890625 227.082031 4.21875 224.074219 3.617188 C 221.0625 3.019531 218.042969 2.492188 215.007812 2.042969 C 211.972656 1.589844 208.929688 1.214844 205.875 0.910156 C 202.820312 0.609375 199.761719 0.382812 196.699219 0.230469 C 193.632812 0.078125 190.566406 0 187.5 0 Z M 156.464844 262.5 C 156.464844 262.839844 156.433594 263.175781 156.367188 263.507812 C 156.300781 263.84375 156.203125 264.164062 156.070312 264.480469 C 155.941406 264.792969 155.78125 265.089844 155.59375 265.375 C 155.40625 265.65625 155.191406 265.917969 154.949219 266.15625 C 154.710938 266.398438 154.449219 266.613281 154.167969 266.800781 C 153.882812 266.988281 153.585938 267.148438 153.273438 267.277344 C 152.957031 267.410156 152.636719 267.507812 152.300781 267.574219 C 151.96875 267.640625 151.632812 267.671875 151.292969 267.671875 L 115.304688 267.671875 C 114.964844 267.671875 114.628906 267.640625 114.296875 267.574219 C 113.964844 267.507812 113.640625 267.410156 113.328125 267.277344 C 113.011719 267.148438 112.714844 266.988281 112.433594 266.800781 C 112.148438 266.613281 111.890625 266.398438 111.648438 266.15625 C 111.410156 265.917969 111.195312 265.65625 111.003906 265.375 C 110.816406 265.089844 110.65625 264.792969 110.527344 264.480469 C 110.398438 264.164062 110.300781 263.84375 110.234375 263.507812 C 110.167969 263.175781 110.132812 262.839844 110.132812 262.5 L 110.132812 159.878906 L 85.796875 171.039062 C 85.109375 171.347656 84.390625 171.503906 83.636719 171.503906 C 82.886719 171.503906 82.164062 171.347656 81.476562 171.039062 C 80.792969 170.722656 80.207031 170.277344 79.714844 169.703125 C 79.226562 169.128906 78.878906 168.480469 78.671875 167.753906 L 70.097656 137.664062 C 69.933594 137.089844 69.871094 136.507812 69.910156 135.910156 C 69.949219 135.316406 70.085938 134.742188 70.320312 134.195312 C 70.554688 133.648438 70.875 133.15625 71.28125 132.71875 C 71.6875 132.28125 72.15625 131.925781 72.683594 131.652344 L 118.449219 108.039062 C 119.191406 107.652344 119.980469 107.460938 120.816406 107.457031 L 151.292969 107.457031 C 151.632812 107.457031 151.96875 107.488281 152.300781 107.554688 C 152.636719 107.621094 152.957031 107.71875 153.273438 107.851562 C 153.585938 107.980469 153.882812 108.140625 154.167969 108.328125 C 154.449219 108.515625 154.710938 108.730469 154.949219 108.972656 C 155.191406 109.210938 155.40625 109.472656 155.59375 109.753906 C 155.78125 110.039062 155.941406 110.335938 156.070312 110.648438 C 156.203125 110.964844 156.300781 111.285156 156.367188 111.621094 C 156.433594 111.953125 156.464844 112.289062 156.464844 112.628906 Z M 284.484375 256.203125 C 281.210938 258.742188 277.738281 260.972656 274.070312 262.898438 C 270.40625 264.824219 266.597656 266.414062 262.648438 267.671875 C 258.703125 268.925781 254.675781 269.828125 250.570312 270.371094 C 246.464844 270.917969 242.339844 271.097656 238.203125 270.917969 C 234.058594 271.105469 229.929688 270.933594 225.816406 270.398438 C 221.703125 269.863281 217.667969 268.976562 213.707031 267.738281 C 209.75 266.496094 205.929688 264.921875 202.246094 263.011719 C 198.566406 261.105469 195.074219 258.890625 191.78125 256.371094 C 190.34375 255.277344 188.976562 254.101562 187.675781 252.851562 C 186.378906 251.597656 185.15625 250.273438 184.011719 248.875 C 182.867188 247.480469 181.808594 246.023438 180.832031 244.503906 C 179.859375 242.984375 178.976562 241.414062 178.183594 239.789062 C 177.390625 238.167969 176.699219 236.503906 176.101562 234.800781 C 175.503906 233.097656 175.003906 231.367188 174.609375 229.605469 C 174.214844 227.84375 173.921875 226.066406 173.734375 224.269531 C 173.542969 222.476562 173.460938 220.675781 173.484375 218.871094 C 173.390625 216.984375 173.425781 215.097656 173.582031 213.214844 C 173.742188 211.332031 174.023438 209.46875 174.429688 207.625 C 174.835938 205.78125 175.363281 203.96875 176.011719 202.195312 C 176.65625 200.417969 177.417969 198.695312 178.292969 197.019531 C 179.167969 195.347656 180.152344 193.738281 181.242188 192.195312 C 182.332031 190.648438 183.519531 189.1875 184.800781 187.800781 C 186.085938 186.414062 187.457031 185.117188 188.914062 183.914062 C 190.367188 182.710938 191.898438 181.609375 193.5 180.609375 C 191.273438 178.796875 189.285156 176.75 187.539062 174.472656 C 185.789062 172.195312 184.328125 169.75 183.152344 167.128906 C 181.976562 164.511719 181.117188 161.792969 180.578125 158.972656 C 180.039062 156.152344 179.835938 153.308594 179.960938 150.441406 C 179.953125 148.851562 180.035156 147.265625 180.214844 145.6875 C 180.390625 144.109375 180.664062 142.542969 181.023438 140.996094 C 181.386719 139.449219 181.835938 137.929688 182.378906 136.433594 C 182.917969 134.9375 183.542969 133.480469 184.257812 132.0625 C 184.96875 130.640625 185.761719 129.265625 186.636719 127.9375 C 187.507812 126.609375 188.457031 125.339844 189.480469 124.125 C 190.503906 122.90625 191.59375 121.753906 192.753906 120.667969 C 193.914062 119.582031 195.132812 118.566406 196.410156 117.621094 C 199.382812 115.390625 202.523438 113.429688 205.835938 111.738281 C 209.144531 110.050781 212.578125 108.65625 216.128906 107.558594 C 219.679688 106.460938 223.300781 105.675781 226.984375 105.203125 C 230.671875 104.730469 234.371094 104.578125 238.085938 104.742188 C 241.804688 104.570312 245.511719 104.714844 249.203125 105.183594 C 252.894531 105.648438 256.523438 106.425781 260.082031 107.511719 C 263.640625 108.601562 267.082031 109.984375 270.402344 111.664062 C 273.726562 113.34375 276.878906 115.296875 279.867188 117.515625 C 281.148438 118.460938 282.371094 119.472656 283.535156 120.558594 C 284.699219 121.644531 285.792969 122.796875 286.820312 124.011719 C 287.847656 125.226562 288.800781 126.5 289.675781 127.824219 C 290.554688 129.152344 291.351562 130.527344 292.066406 131.949219 C 292.78125 133.371094 293.410156 134.832031 293.953125 136.328125 C 294.496094 137.824219 294.949219 139.34375 295.3125 140.894531 C 295.675781 142.445312 295.945312 144.007812 296.125 145.589844 C 296.304688 147.171875 296.386719 148.757812 296.378906 150.347656 C 296.503906 153.222656 296.296875 156.074219 295.753906 158.898438 C 295.210938 161.722656 294.351562 164.449219 293.171875 167.074219 C 291.992188 169.695312 290.523438 172.148438 288.769531 174.429688 C 287.015625 176.707031 285.023438 178.753906 282.789062 180.570312 C 284.386719 181.570312 285.914062 182.671875 287.363281 183.878906 C 288.816406 185.082031 290.183594 186.375 291.464844 187.761719 C 292.746094 189.144531 293.929688 190.609375 295.015625 192.152344 C 296.101562 193.695312 297.082031 195.300781 297.957031 196.972656 C 298.828125 198.644531 299.589844 200.367188 300.234375 202.140625 C 300.878906 203.914062 301.402344 205.722656 301.808594 207.5625 C 302.214844 209.40625 302.496094 211.265625 302.652344 213.148438 C 302.8125 215.027344 302.84375 216.910156 302.753906 218.792969 C 302.765625 220.59375 302.675781 222.386719 302.480469 224.175781 C 302.285156 225.964844 301.988281 227.738281 301.585938 229.492188 C 301.1875 231.246094 300.683594 232.972656 300.082031 234.667969 C 299.484375 236.363281 298.785156 238.019531 297.992188 239.636719 C 297.199219 241.25 296.316406 242.816406 295.34375 244.328125 C 294.367188 245.839844 293.308594 247.292969 292.167969 248.683594 C 291.023438 250.074219 289.804688 251.394531 288.507812 252.640625 C 287.214844 253.890625 285.847656 255.058594 284.417969 256.152344 Z M 284.484375 256.203125 " fill-opacity="1" fill-rule="evenodd"></path></svg>